<svg width="210" height="73" viewBox="0 0 210 73" fill="none" xmlns="http://www.w3.org/2000/svg">
<path d="M71.9825 31.6012C71.6582 31.5901 71.3172 31.5733 70.9593 31.5509C70.6127 31.5174 70.1989 31.495 69.7181 31.4838C68.6669 31.4615 67.5263 31.5062 66.2962 31.618C66.0166 32.5797 65.5525 33.7651 64.904 35.1741C64.2666 36.5719 63.6347 37.7573 63.0085 38.7301C61.6666 40.8101 60.3023 42.0961 58.9157 42.5881C58.7144 42.6664 58.5075 42.7056 58.295 42.7056C58.0938 42.7056 57.9092 42.6664 57.7415 42.5881C57.5738 42.521 57.434 42.4316 57.3222 42.3198C57.0873 42.1073 56.9699 41.8724 56.9699 41.6152C56.9699 41.358 57.0538 41.1679 57.2215 41.0449C58.8094 39.8931 60.4421 36.9912 62.1195 32.3393C61.9965 32.3728 61.8735 32.4064 61.7505 32.4399C61.6275 32.4735 61.5212 32.507 61.4318 32.5406C61.3423 32.5741 61.2361 32.5909 61.1131 32.5909C61.0012 32.5909 60.8726 32.5573 60.7273 32.4902C60.5931 32.412 60.4701 32.3225 60.3582 32.2219C60.1122 31.9982 59.9892 31.7802 59.9892 31.5677C59.9892 31.3552 60.0843 31.1595 60.2744 30.9806C60.4756 30.7905 60.7217 30.6116 61.0124 30.4438C61.5492 30.1307 62.2257 29.84 63.0421 29.5716L63.9478 26.7536C65.0102 23.4547 66.0278 21.1679 67.0007 19.8931C66.0837 19.8148 65.4072 19.7756 64.9711 19.7756C63.6515 19.7756 62.701 19.9601 62.1195 20.3292C61.5492 20.6982 61.1466 21.1008 60.9118 21.5369C60.6881 21.9618 60.5707 22.2582 60.5595 22.4259C60.526 22.739 60.4253 22.9403 60.2576 23.0298C60.0899 23.108 59.883 23.1472 59.637 23.1472C59.4021 23.1472 59.1561 23.0633 58.8989 22.8956C58.6417 22.7167 58.4292 22.493 58.2615 22.2246C57.9037 21.6767 57.7639 21.0616 57.8421 20.3795C57.9204 19.6862 58.1441 19.0935 58.5131 18.6015C58.8933 18.0982 59.3406 17.6901 59.855 17.377C60.8055 16.7955 61.8064 16.5047 62.8575 16.5047C63.9199 16.5047 64.9207 16.5606 65.8601 16.6725C66.8106 16.7731 67.7555 16.8905 68.6949 17.0247C71.1886 17.3602 72.7765 17.5279 73.4586 17.5279C74.1408 17.5279 74.644 17.4888 74.9683 17.4105C75.3038 17.3322 75.5889 17.2148 75.8238 17.0583C76.0586 16.9017 76.2207 16.8011 76.3102 16.7563C76.4109 16.7004 76.5674 16.6725 76.7799 16.6725C77.1154 16.6725 77.2607 16.9297 77.216 17.4441C77.1713 17.9473 77.0483 18.3834 76.847 18.7524C76.6457 19.1103 76.3829 19.4066 76.0586 19.6414C75.3988 20.1223 74.5601 20.3627 73.5425 20.3627C72.5249 20.3627 71.2892 20.2956 69.8355 20.1614C69.4665 20.9107 69.1142 21.8947 68.7787 23.1136L67.2355 28.649C68.2867 28.4813 69.0863 28.3974 69.6342 28.3974C70.1933 28.3974 70.6518 28.4533 71.0097 28.5652C71.3675 28.677 71.6862 28.8335 71.9658 29.0348C72.6144 29.4709 72.9331 30.0077 72.9219 30.6451C72.9107 31.2825 72.5976 31.6012 71.9825 31.6012ZM75.3876 35.5431L75.4044 35.0567C75.5274 31.7131 76.3717 28.554 77.9373 25.5794C79.3798 22.862 81.197 20.6647 83.3888 18.9873C85.5582 17.3322 87.6717 16.5047 89.7293 16.5047C91.2949 16.5047 92.5306 17.0471 93.4364 18.1318C94.208 19.0711 94.5938 20.2229 94.5938 21.5872C94.5938 23.2199 93.9955 24.8302 92.7989 26.4181C92.1056 27.3351 91.3676 27.9948 90.5848 28.3974C90.2158 28.5987 89.8691 28.6993 89.5448 28.6993C89.2317 28.6993 88.941 28.6323 88.6726 28.4981C88.4042 28.3639 88.1694 28.1961 87.9681 27.9948C87.5543 27.5587 87.3474 27.1673 87.3474 26.8207C87.3474 26.474 87.4369 26.2336 87.6158 26.0994C89.4498 24.7798 90.6966 23.4212 91.3564 22.0233C91.6136 21.4866 91.7422 20.961 91.7422 20.4466C91.7422 19.3619 91.2278 18.8195 90.199 18.8195C88.5887 18.8195 86.9281 19.6974 85.2171 21.453C83.618 23.0745 82.2761 25.1097 81.1914 27.5587C80.062 30.0748 79.4637 32.384 79.3966 34.4863L79.3798 35.1238C79.3798 37.6398 79.911 39.2893 80.9734 40.0721C81.3536 40.3516 81.8065 40.4914 82.332 40.4914C82.8688 40.4914 83.372 40.4243 83.8417 40.2901C84.3114 40.1559 84.781 39.9714 85.2507 39.7366C86.0111 39.3452 86.984 38.6686 88.1694 37.7069C88.5272 37.4274 88.8235 37.4665 89.0584 37.8243C89.2597 38.1151 89.3603 38.4506 89.3603 38.8308C89.3603 39.4682 89.2708 39.9043 89.0919 40.1391C88.9242 40.3628 88.6278 40.6312 88.2029 40.9443C87.7891 41.2574 87.2803 41.5482 86.6765 41.8165C85.2675 42.4428 83.8864 42.7559 82.5333 42.7559C81.1802 42.7559 80.0899 42.5937 79.2624 42.2694C78.4349 41.934 77.736 41.4587 77.1657 40.8436C75.9803 39.5465 75.3876 37.7796 75.3876 35.5431ZM94.8621 41.4475C94.3925 41.0002 94.0234 40.4355 93.7551 39.7533C93.4867 39.06 93.3469 38.2437 93.3357 37.3044C93.3245 36.365 93.4364 35.4145 93.6712 34.4528C93.9172 33.4911 94.2583 32.5629 94.6944 31.6683C95.1417 30.7737 95.6729 29.935 96.2879 29.1522C96.9141 28.3695 97.6019 27.6873 98.3511 27.1058C99.9838 25.8534 101.678 25.2272 103.434 25.2272C105.737 25.2272 107.297 26.2392 108.114 28.2632C108.695 29.7281 108.729 31.5006 108.214 33.5806C107.744 35.4928 106.883 37.2484 105.631 38.8476C104.39 40.4467 102.925 41.5817 101.236 42.2527C100.386 42.5881 99.5476 42.7559 98.7201 42.7559C97.9038 42.7559 97.1713 42.6496 96.5228 42.4372C95.8853 42.2247 95.3318 41.8948 94.8621 41.4475ZM98.066 33.3122C97.7305 34.1397 97.4621 34.9896 97.2608 35.8618C97.0707 36.734 96.9812 37.5616 96.9924 38.3443C97.0036 39.1159 97.121 39.7254 97.3447 40.1727C97.5795 40.6088 97.9541 40.8269 98.4685 40.8269C98.9829 40.8269 99.4861 40.6535 99.9782 40.3069C100.481 39.949 100.968 39.4794 101.438 38.8979C101.907 38.3164 102.349 37.6454 102.763 36.885C103.176 36.1246 103.54 35.3306 103.853 34.5031C104.535 32.7027 104.865 31.1036 104.843 29.7058C104.843 28.4757 104.591 27.6929 104.088 27.3574C103.886 27.2232 103.601 27.1562 103.232 27.1562C102.874 27.1562 102.461 27.3239 101.991 27.6594C101.521 27.9837 101.052 28.4254 100.582 28.9845C100.112 29.5436 99.6595 30.1978 99.2234 30.9471C98.7872 31.6963 98.4014 32.4847 98.066 33.3122ZM111.049 42.1856C110.825 42.0178 110.646 41.8333 110.512 41.632C110.378 41.4196 110.305 41.2406 110.294 41.0953C110.283 40.9387 110.311 40.7542 110.378 40.5417C110.456 40.3181 110.557 40.0497 110.68 39.7366C112.961 34.1229 114.102 30.3544 114.102 28.431C114.068 27.8942 113.884 27.514 113.548 27.2903L113.213 27.0555C113.112 26.9772 113.056 26.843 113.045 26.6529C113.045 26.4516 113.118 26.2615 113.263 26.0826C113.408 25.9037 113.599 25.7471 113.833 25.613C114.314 25.3558 114.806 25.2272 115.31 25.2272C115.824 25.2272 116.221 25.2831 116.5 25.3949C116.791 25.5067 117.037 25.6577 117.239 25.8478C117.663 26.2504 117.876 26.6753 117.876 27.1226C117.887 27.5699 117.837 28.0228 117.725 28.4813C117.624 28.9398 117.501 29.3927 117.356 29.84C117.211 30.2761 117.065 30.6954 116.92 31.098C116.774 31.4894 116.679 31.7802 116.635 31.9703C116.545 32.3616 116.512 32.6077 116.534 32.7083C116.802 32.4735 116.965 32.2442 117.02 32.0206L117.675 30.7793C119.128 28.1626 120.549 26.4293 121.935 25.5794C122.338 25.3446 122.819 25.2272 123.378 25.2272C123.948 25.2272 124.407 25.4284 124.753 25.831C125.1 26.2224 125.279 26.6585 125.29 27.1394C125.312 27.6202 125.279 28.0228 125.189 28.3471C125.111 28.6602 124.988 28.9565 124.82 29.2361C124.451 29.8623 124.004 30.1755 123.478 30.1755C123.333 30.1755 123.199 30.1251 123.076 30.0245L122.707 29.7058C122.338 29.3815 121.98 29.2193 121.633 29.2193C121.298 29.2193 120.884 29.443 120.392 29.8903C119.911 30.3376 119.408 30.9135 118.882 31.618C117.116 33.9552 115.673 36.5719 114.555 39.4682L113.817 41.414C113.627 41.8948 113.459 42.2415 113.313 42.4539C113.168 42.6552 112.95 42.7559 112.659 42.7559C112.38 42.7559 112.095 42.7 111.804 42.5881C111.524 42.4875 111.273 42.3533 111.049 42.1856ZM137.954 38.1263C137.954 39.1551 138.318 39.6695 139.045 39.6695C139.548 39.6695 139.962 39.5912 140.286 39.4346C140.621 39.2781 140.845 39.1998 140.957 39.1998C141.192 39.1998 141.309 39.3228 141.309 39.5688C141.309 40.5305 140.806 41.358 139.799 42.0514C138.737 42.7782 137.652 42.9572 136.545 42.5881C135.818 42.3309 135.282 41.7774 134.935 40.9275C134.767 40.4914 134.683 40.0944 134.683 39.7366C134.683 39.1551 134.739 38.54 134.851 37.8914C133.811 40.0161 132.52 41.4811 130.976 42.2862C130.361 42.5993 129.707 42.7559 129.014 42.7559C128.32 42.7559 127.717 42.6161 127.202 42.3365C126.699 42.0458 126.268 41.6488 125.911 41.1456C125.184 40.0944 124.854 38.7749 124.921 37.1869C124.988 35.1964 125.575 33.2451 126.682 31.3329C127.7 29.5436 128.986 28.0843 130.54 26.9549C132.095 25.8031 133.548 25.2272 134.901 25.2272C136.255 25.2272 137.345 25.8478 138.172 27.0891C138.944 25.8478 139.626 25.2272 140.219 25.2272C140.856 25.2272 141.337 25.3446 141.661 25.5794C142.276 26.0267 142.494 26.4181 142.315 26.7536C139.509 32.5014 138.066 36.0799 137.988 37.4889C137.965 37.6902 137.954 37.9026 137.954 38.1263ZM128.645 38.1934C128.645 39.5353 129.075 40.2062 129.936 40.2062C130.596 40.2062 131.407 39.6471 132.369 38.5289C133.778 36.885 135.024 34.6709 136.109 31.8864C136.456 31.0141 136.747 30.1419 136.981 29.2697C136.937 28.5092 136.618 27.9501 136.025 27.5923C135.824 27.4693 135.522 27.4078 135.119 27.4078C134.728 27.4078 134.264 27.5531 133.727 27.8439C133.202 28.1346 132.687 28.5316 132.184 29.0348C131.692 29.538 131.228 30.1363 130.792 30.8296C130.367 31.5118 129.992 32.2554 129.668 33.0606C128.986 34.7827 128.645 36.4936 128.645 38.1934ZM149.595 42.7391C150.266 43.712 150.602 44.629 150.602 45.49C150.602 46.3511 150.49 47.0612 150.266 47.6203C150.043 48.1906 149.752 48.6715 149.394 49.0629C148.667 49.8904 147.829 50.3041 146.878 50.3041C146.352 50.3041 145.944 50.1532 145.653 49.8512C145.173 49.348 144.932 48.8392 144.932 48.3248C144.932 47.9558 145.066 47.7433 145.335 47.6874C145.469 47.6539 145.62 47.6203 145.788 47.5868C145.967 47.5644 146.168 47.4749 146.392 47.3184C146.626 47.173 146.85 46.9829 147.062 46.7481C147.275 46.5132 147.454 46.256 147.599 45.9765C147.901 45.4173 148.052 44.9029 148.052 44.4333C148.052 43.4939 147.745 42.8453 147.13 42.4875C145.933 42.1408 145.022 41.4922 144.395 40.5417C143.78 39.58 143.484 38.4729 143.506 37.2205C143.54 35.968 143.697 34.861 143.976 33.8993C144.267 32.9264 144.647 32.0094 145.117 31.1483C145.598 30.2873 146.162 29.4933 146.811 28.7664C147.471 28.0396 148.186 27.4133 148.958 26.8878C150.568 25.7807 152.262 25.2272 154.04 25.2272C155.874 25.2272 157.121 25.9596 157.781 27.4245C158.016 27.9501 158.122 28.5484 158.1 29.2193C158.089 29.8791 157.982 30.4886 157.781 31.0477C157.58 31.5956 157.328 32.0877 157.026 32.5238C156.344 33.5079 155.656 33.9999 154.963 33.9999C154.191 33.9999 153.621 33.7874 153.252 33.3625C152.928 32.9935 152.827 32.5629 152.95 32.0709C152.984 31.9255 153.084 31.7969 153.252 31.6851C153.42 31.5621 153.632 31.372 153.889 31.1148C154.616 30.3544 154.997 29.4654 155.03 28.4477C155.052 27.7544 154.628 27.4078 153.755 27.4078C152.816 27.4078 151.832 27.9333 150.803 28.9845C149.305 30.5165 148.248 32.4791 147.633 34.8721C147.096 36.9521 147.197 38.4729 147.935 39.4346C148.371 39.9938 148.964 40.2733 149.713 40.2733C150.976 40.2733 152.195 39.826 153.369 38.9314C153.727 38.6519 154.018 38.3667 154.242 38.076C154.465 37.7852 154.672 37.6398 154.862 37.6398C155.052 37.6398 155.209 37.7349 155.332 37.925C155.466 38.1039 155.533 38.3387 155.533 38.6295C155.533 39.2893 155.237 39.9379 154.644 40.5753C153.235 41.9284 151.552 42.6496 149.595 42.7391ZM172.576 38.1263C172.576 39.1551 172.939 39.6695 173.666 39.6695C174.169 39.6695 174.583 39.5912 174.907 39.4346C175.243 39.2781 175.466 39.1998 175.578 39.1998C175.813 39.1998 175.93 39.3228 175.93 39.5688C175.93 40.5305 175.427 41.358 174.421 42.0514C173.358 42.7782 172.274 42.9572 171.167 42.5881C170.44 42.3309 169.903 41.7774 169.556 40.9275C169.389 40.4914 169.305 40.0944 169.305 39.7366C169.305 39.1551 169.361 38.54 169.472 37.8914C168.432 40.0161 167.141 41.4811 165.598 42.2862C164.983 42.5993 164.328 42.7559 163.635 42.7559C162.942 42.7559 162.338 42.6161 161.824 42.3365C161.32 42.0458 160.89 41.6488 160.532 41.1456C159.805 40.0944 159.475 38.7749 159.542 37.1869C159.609 35.1964 160.196 33.2451 161.304 31.3329C162.321 29.5436 163.607 28.0843 165.162 26.9549C166.716 25.8031 168.17 25.2272 169.523 25.2272C170.876 25.2272 171.966 25.8478 172.794 27.0891C173.565 25.8478 174.247 25.2272 174.84 25.2272C175.477 25.2272 175.958 25.3446 176.283 25.5794C176.898 26.0267 177.116 26.4181 176.937 26.7536C174.13 32.5014 172.687 36.0799 172.609 37.4889C172.587 37.6902 172.576 37.9026 172.576 38.1263ZM163.266 38.1934C163.266 39.5353 163.697 40.2062 164.558 40.2062C165.217 40.2062 166.028 39.6471 166.99 38.5289C168.399 36.885 169.646 34.6709 170.73 31.8864C171.077 31.0141 171.368 30.1419 171.603 29.2697C171.558 28.5092 171.239 27.9501 170.647 27.5923C170.445 27.4693 170.143 27.4078 169.741 27.4078C169.349 27.4078 168.885 27.5531 168.349 27.8439C167.823 28.1346 167.309 28.5316 166.805 29.0348C166.313 29.538 165.849 30.1363 165.413 30.8296C164.988 31.5118 164.614 32.2554 164.289 33.0606C163.607 34.7827 163.266 36.4936 163.266 38.1934ZM165.95 22.0401C165.402 22.0401 165.145 21.7494 165.178 21.1679C165.212 20.5752 165.38 20.0217 165.682 19.5073C165.995 18.9817 166.392 18.5008 166.872 18.0647C167.946 17.0918 169.042 16.6054 170.16 16.6054C171.099 16.6054 171.927 17.0247 172.643 17.8634L173.179 18.484C173.571 18.9202 173.94 19.1382 174.287 19.1382C174.633 19.1382 174.93 19.0823 175.176 18.9705C175.433 18.8587 175.662 18.7189 175.863 18.5511C176.143 18.3163 176.456 17.9305 176.803 17.3937C176.948 17.0135 177.155 16.8234 177.423 16.8234C178.005 16.8234 178.273 17.1701 178.228 17.8634C178.161 18.8698 177.574 19.8539 176.467 20.8156C175.349 21.7885 174.214 22.2749 173.062 22.2749C172.112 22.2749 171.29 21.8556 170.596 21.0169L170.076 20.3963C169.696 19.9601 169.333 19.7421 168.986 19.7421C168.639 19.7421 168.354 19.798 168.131 19.9098C167.907 20.0217 167.706 20.1614 167.527 20.3292C167.247 20.5976 166.973 20.9498 166.705 21.3859C166.448 21.8221 166.196 22.0401 165.95 22.0401ZM179.805 41.4475C179.335 41.0002 178.966 40.4355 178.698 39.7533C178.43 39.06 178.29 38.2437 178.279 37.3044C178.268 36.365 178.379 35.4145 178.614 34.4528C178.86 33.4911 179.201 32.5629 179.637 31.6683C180.085 30.7737 180.616 29.935 181.231 29.1522C181.857 28.3695 182.545 27.6873 183.294 27.1058C184.927 25.8534 186.621 25.2272 188.377 25.2272C190.68 25.2272 192.24 26.2392 193.057 28.2632C193.638 29.7281 193.672 31.5006 193.157 33.5806C192.687 35.4928 191.826 37.2484 190.574 38.8476C189.333 40.4467 187.868 41.5817 186.179 42.2527C185.329 42.5881 184.491 42.7559 183.663 42.7559C182.847 42.7559 182.114 42.6496 181.466 42.4372C180.828 42.2247 180.275 41.8948 179.805 41.4475ZM183.009 33.3122C182.673 34.1397 182.405 34.9896 182.204 35.8618C182.014 36.734 181.924 37.5616 181.935 38.3443C181.947 39.1159 182.064 39.7254 182.288 40.1727C182.523 40.6088 182.897 40.8269 183.412 40.8269C183.926 40.8269 184.429 40.6535 184.921 40.3069C185.424 39.949 185.911 39.4794 186.381 38.8979C186.85 38.3164 187.292 37.6454 187.706 36.885C188.119 36.1246 188.483 35.3306 188.796 34.5031C189.478 32.7027 189.808 31.1036 189.786 29.7058C189.786 28.4757 189.534 27.6929 189.031 27.3574C188.83 27.2232 188.544 27.1562 188.175 27.1562C187.817 27.1562 187.404 27.3239 186.934 27.6594C186.464 27.9837 185.995 28.4254 185.525 28.9845C185.055 29.5436 184.602 30.1978 184.166 30.9471C183.73 31.6963 183.344 32.4847 183.009 33.3122Z" fill="#5F2F2F"/>
<path d="M31.7911 46.1617C31.7911 46.1617 12.8824 35.5728 12.8824 22.7149C12.8824 20.4418 13.6699 18.239 15.111 16.4812C16.5521 14.7233 18.5577 13.5191 20.7866 13.0733C23.0155 12.6275 25.33 12.9677 27.3363 14.0361C29.3427 15.1045 30.9169 16.8349 31.7911 18.9331C32.6654 16.8349 34.2396 15.1045 36.2459 14.0361C38.2522 12.9677 40.5667 12.6275 42.7956 13.0733C45.0245 13.5191 47.0301 14.7233 48.4712 16.4812C49.9123 18.239 50.6999 20.4418 50.6999 22.7149C50.6999 35.5728 31.7911 46.1617 31.7911 46.1617Z" fill="#5F2F2F" stroke="#5F2F2F" stroke-width="3.0254" stroke-linecap="round" stroke-linejoin="round"/>
<path d="M195.382 56.6887C173.912 72.2548 77.8309 52.9449 72.4632 52.3946C53.4772 50.448 43.3274 51.7466 25.7647 56.6887" stroke="#5F2F2F" stroke-width="3.22059" stroke-linecap="round"/>
</svg>
